<svg width="400" height="400" viewBox="0 0 400 400" fill="none" xmlns="http://www.w3.org/2000/svg">
<path fill-rule="evenodd" clip-rule="evenodd" d="M107.612 161.732C102.587 173.864 100 186.868 100 200C100 186.868 97.4134 173.864 92.388 161.732C87.3625 149.599 79.9965 138.575 70.7107 129.289C61.4248 120.003 50.4009 112.638 38.2683 107.612C26.1358 102.587 13.1322 100 0 100H100V0C100 13.1322 102.587 26.1358 107.612 38.2683C112.638 50.4009 120.003 61.4248 129.289 70.7107C138.575 79.9965 149.599 87.3625 161.732 92.388C173.864 97.4134 186.868 100 200 100C186.868 100 173.864 102.587 161.732 107.612C149.599 112.638 138.575 120.003 129.289 129.289C120.003 138.575 112.638 149.599 107.612 161.732Z" fill="#F9C784"/>
<path fill-rule="evenodd" clip-rule="evenodd" d="M292.388 38.2683C297.413 26.1358 300 13.1322 300 0V100H400C386.868 100 373.864 102.587 361.732 107.612C349.599 112.638 338.575 120.003 329.289 129.289C320.003 138.575 312.638 149.599 307.612 161.732C302.587 173.864 300 186.868 300 200C300 186.868 297.413 173.864 292.388 161.732C287.362 149.599 279.997 138.575 270.711 129.289C261.425 120.003 250.401 112.638 238.268 107.612C226.136 102.587 213.132 100 200 100C213.132 100 226.136 97.4134 238.268 92.388C250.401 87.3625 261.425 79.9965 270.711 70.7107C279.997 61.4248 287.362 50.4009 292.388 38.2683Z" fill="#F9C784"/>
<path fill-rule="evenodd" clip-rule="evenodd" d="M292.388 238.268C297.413 226.136 300 213.132 300 200C300 213.132 302.587 226.136 307.612 238.268C312.638 250.401 320.003 261.425 329.289 270.711C338.575 279.997 349.599 287.362 361.732 292.388C373.864 297.413 386.868 300 400 300H300V400C300 386.868 297.413 373.864 292.388 361.732C287.362 349.599 279.997 338.575 270.711 329.289C261.425 320.003 250.401 312.638 238.268 307.612C226.136 302.587 213.132 300 200 300C213.132 300 226.136 297.413 238.268 292.388C250.401 287.362 261.425 279.997 270.711 270.711C279.997 261.425 287.362 250.401 292.388 238.268Z" fill="#F9C784"/>
<path fill-rule="evenodd" clip-rule="evenodd" d="M107.612 361.732C102.587 373.864 100 386.868 100 400V300H0C13.1322 300 26.1358 297.413 38.2683 292.388C50.4009 287.362 61.4248 279.997 70.7107 270.711C79.9965 261.425 87.3625 250.401 92.388 238.268C97.4134 226.136 100 213.132 100 200C100 213.132 102.587 226.136 107.612 238.268C112.638 250.401 120.003 261.425 129.289 270.711C138.575 279.997 149.599 287.362 161.732 292.388C173.864 297.413 186.868 300 200 300C186.868 300 173.864 302.587 161.732 307.612C149.599 312.638 138.575 320.003 129.289 329.289C120.003 338.575 112.638 349.599 107.612 361.732Z" fill="#F9C784"/>
</svg>
