<svg width="400" height="400" viewBox="0 0 400 400" fill="none" xmlns="http://www.w3.org/2000/svg">
<path d="M300 100H400C400 113.132 397.413 126.136 392.388 138.269C387.362 150.401 379.997 161.425 370.711 170.711C361.425 179.997 350.401 187.362 338.269 192.388C326.515 197.256 313.944 199.836 301.23 199.992L300 200L301.23 200.008C313.944 200.164 326.515 202.744 338.269 207.612C350.401 212.638 361.425 220.003 370.711 229.289C379.997 238.575 387.362 249.599 392.388 261.731C397.413 273.864 400 286.868 400 300H300V400C286.868 400 273.864 397.413 261.731 392.388C249.599 387.362 238.575 379.997 229.289 370.711C220.003 361.425 212.638 350.401 207.612 338.269C202.744 326.515 200.164 313.944 200.008 301.23L200 300L199.992 301.23C199.836 313.944 197.256 326.515 192.388 338.269C187.362 350.401 179.997 361.425 170.711 370.711C161.425 379.997 150.401 387.362 138.269 392.388C126.136 397.413 113.132 400 100 400V300H0C1.22112e-05 286.868 2.58682 273.864 7.6123 261.731C12.6378 249.599 20.0033 238.575 29.2891 229.289C38.5748 220.003 49.599 212.638 61.7314 207.612C73.864 202.587 86.8678 200 100 200C86.8678 200 73.864 197.413 61.7314 192.388C49.599 187.362 38.5748 179.997 29.2891 170.711C20.0033 161.425 12.6378 150.401 7.6123 138.269C2.58682 126.136 1.22112e-05 113.132 0 100H100V0C113.132 1.16371e-05 126.136 2.58682 138.269 7.6123C150.401 12.6378 161.425 20.0033 170.711 29.2891C179.997 38.5748 187.362 49.599 192.388 61.7314C197.256 73.485 199.836 86.0561 199.992 98.7695L200 100C200 86.8678 202.587 73.864 207.612 61.7314C212.638 49.599 220.003 38.5748 229.289 29.2891C238.575 20.0033 249.599 12.6378 261.731 7.6123C273.864 2.58682 286.868 1.27852e-05 300 0V100ZM200 150C172.386 150 150 172.386 150 200C150 227.614 172.386 250 200 250C227.614 250 250 227.614 250 200C250 172.386 227.614 150 200 150Z" fill="#F9C784"/>
</svg>
