<svg width="400" height="400" viewBox="0 0 400 400" fill="none" xmlns="http://www.w3.org/2000/svg">
<path d="M256.276 200C241.642 200 227.15 202.883 213.63 208.483C209.126 210.349 204.76 212.505 200.556 214.932L200.557 214.933C197.415 216.747 194.363 218.713 191.414 220.823C191.392 220.839 191.37 220.855 191.348 220.871C190.398 221.551 189.459 222.247 188.531 222.957C188.009 223.357 187.49 223.76 186.975 224.169C186.073 224.886 185.182 225.617 184.302 226.361C183.774 226.808 183.249 227.26 182.729 227.717C181.895 228.45 181.072 229.196 180.259 229.954C179.317 230.832 178.389 231.727 177.477 232.639C167.129 242.987 158.921 255.273 153.32 268.793C147.72 282.313 144.837 296.804 144.837 311.439H33.3984C48.0328 311.439 62.5241 308.556 76.0445 302.956C80.5484 301.09 84.9139 298.933 89.1178 296.506C97.5334 291.647 105.297 285.7 112.198 278.799C122.546 268.451 130.754 256.166 136.354 242.646C141.954 229.126 144.837 214.634 144.837 200H256.276Z" fill="#F9C784"/>
<path d="M151.264 171.862C163.937 179.179 177.929 183.928 192.438 185.838C197.271 186.475 202.131 186.791 206.985 186.791L206.985 186.789C210.613 186.789 214.238 186.613 217.847 186.26C217.874 186.257 217.901 186.254 217.929 186.251C219.091 186.137 220.252 186.004 221.411 185.853C222.063 185.768 222.714 185.678 223.365 185.581C224.504 185.412 225.641 185.224 226.775 185.019C227.457 184.897 228.137 184.768 228.816 184.632C229.905 184.415 230.99 184.18 232.073 183.93C233.328 183.64 234.579 183.329 235.826 182.995C249.961 179.208 263.212 172.672 274.822 163.764C286.432 154.855 296.175 143.746 303.492 131.073L400.001 186.792C387.327 179.475 373.336 174.726 358.827 172.815C353.993 172.179 349.134 171.865 344.28 171.865C334.562 171.865 324.865 173.133 315.439 175.659C301.303 179.446 288.052 185.982 276.442 194.89C264.832 203.799 255.09 214.908 247.772 227.581L151.264 171.862Z" fill="#F9C784"/>
<path d="M228.138 248.736C220.821 236.063 211.079 224.954 199.468 216.045C195.601 213.078 191.55 210.374 187.346 207.947L187.346 207.949C184.204 206.135 180.976 204.475 177.674 202.976C177.649 202.965 177.624 202.953 177.599 202.942C176.535 202.46 175.463 201.995 174.384 201.546C173.777 201.294 173.168 201.046 172.556 200.805C171.485 200.381 170.406 199.976 169.322 199.586C168.67 199.352 168.017 199.123 167.361 198.901C166.309 198.545 165.252 198.206 164.189 197.881C162.957 197.504 161.718 197.148 160.472 196.814C146.336 193.026 131.593 192.06 117.084 193.971C102.575 195.881 88.5835 200.63 75.9098 207.947L20.1904 111.438C27.5076 124.112 37.2497 135.22 48.8599 144.129C52.7276 147.097 56.7788 149.799 60.9826 152.226C69.3982 157.085 78.43 160.835 87.8566 163.361C101.992 167.148 116.735 168.114 131.245 166.204C145.754 164.294 159.745 159.545 172.419 152.228L228.138 248.736Z" fill="#F9C784"/>
<path d="M200 143.722C200 158.356 202.883 172.848 208.483 186.368C210.349 190.872 212.505 195.238 214.932 199.443L214.933 199.441C216.747 202.583 218.713 205.635 220.823 208.584C220.839 208.606 220.855 208.628 220.871 208.65C221.551 209.6 222.247 210.539 222.957 211.467C223.357 211.989 223.76 212.508 224.169 213.023C224.886 213.925 225.617 214.816 226.361 215.696C226.808 216.224 227.26 216.749 227.717 217.269C228.45 218.103 229.196 218.926 229.954 219.739C230.832 220.681 231.727 221.609 232.639 222.521C242.987 232.869 255.273 241.077 268.793 246.678C282.313 252.278 296.804 255.161 311.439 255.161L311.439 366.6C311.439 351.965 308.556 337.474 302.956 323.954C301.09 319.45 298.933 315.084 296.506 310.88C291.647 302.465 285.7 294.701 278.799 287.8C268.451 277.452 256.166 269.244 242.646 263.644C229.126 258.044 214.634 255.161 200 255.161L200 143.722Z" fill="#F9C784"/>
<path d="M171.862 248.736C179.179 236.063 183.928 222.071 185.838 207.562C186.475 202.729 186.791 197.869 186.791 193.015L186.789 193.015C186.789 189.387 186.613 185.762 186.26 182.153C186.257 182.126 186.254 182.099 186.251 182.071C186.137 180.909 186.004 179.748 185.853 178.589C185.768 177.937 185.678 177.286 185.581 176.635C185.412 175.496 185.224 174.359 185.019 173.225C184.896 172.543 184.768 171.863 184.632 171.184C184.415 170.095 184.18 169.01 183.93 167.927C183.64 166.672 183.329 165.421 182.995 164.174C179.208 150.039 172.672 136.788 163.764 125.178C154.855 113.567 143.746 103.825 131.073 96.5081L186.792 -0.000676703C179.475 12.673 174.726 26.6642 172.815 41.1734C172.179 46.0068 171.865 50.8661 171.865 55.7204C171.865 65.4378 173.133 75.1347 175.659 84.5613C179.446 98.6969 185.982 111.948 194.89 123.558C203.799 135.168 214.908 144.91 227.581 152.228L171.862 248.736Z" fill="#F9C784"/>
<path d="M248.738 171.862C236.065 179.179 224.956 188.921 216.047 200.532C213.08 204.399 210.376 208.45 207.949 212.654L207.951 212.654C206.137 215.796 204.477 219.024 202.978 222.326C202.966 222.351 202.955 222.376 202.944 222.401C202.462 223.465 201.997 224.537 201.548 225.616C201.296 226.223 201.048 226.832 200.807 227.444C200.383 228.515 199.978 229.594 199.588 230.678C199.354 231.33 199.125 231.983 198.903 232.639C198.547 233.691 198.207 234.748 197.883 235.811C197.506 237.043 197.15 238.282 196.816 239.528C193.028 253.664 192.062 268.407 193.972 282.916C195.883 297.425 200.632 311.417 207.949 324.09L111.44 379.81C124.114 372.492 135.222 362.75 144.131 351.14C147.099 347.272 149.801 343.221 152.228 339.017C157.087 330.602 160.837 321.57 163.363 312.143C167.15 298.008 168.116 283.265 166.206 268.755C164.296 254.246 159.547 240.255 152.23 227.581L248.738 171.862Z" fill="#F9C784"/>
<path d="M366.6 88.5605C351.966 88.5605 337.475 91.4433 323.954 97.0436C319.45 98.9093 315.084 101.066 310.88 103.493L310.881 103.494C307.739 105.308 304.688 107.273 301.738 109.383C301.716 109.399 301.694 109.415 301.672 109.431C300.722 110.112 299.783 110.807 298.855 111.518C298.333 111.917 297.814 112.321 297.299 112.73C296.397 113.446 295.507 114.177 294.626 114.922C294.098 115.369 293.573 115.821 293.053 116.278C292.219 117.01 291.396 117.756 290.584 118.514C289.642 119.393 288.713 120.288 287.801 121.2C277.453 131.548 269.245 143.833 263.645 157.353C258.044 170.874 255.161 185.365 255.161 199.999H143.723C158.357 199.999 172.848 197.117 186.369 191.516C190.873 189.651 195.238 187.493 199.442 185.066C207.858 180.207 215.621 174.261 222.522 167.36C232.87 157.012 241.078 144.727 246.678 131.207C252.279 117.686 255.161 103.195 255.161 88.5605H366.6Z" fill="#F9C784"/>
<path d="M-5.93999e-05 213.21C12.6737 220.527 26.6648 225.276 41.174 227.186C46.0075 227.822 50.867 228.138 55.7214 228.138L55.721 228.137C59.349 228.137 62.9742 227.96 66.5835 227.607C66.6107 227.605 66.6378 227.602 66.6649 227.599C67.8275 227.485 68.9884 227.352 70.1472 227.201C70.7991 227.116 71.4505 227.026 72.1011 226.929C73.2404 226.76 74.3773 226.572 75.5116 226.367C76.1929 226.244 76.8732 226.115 77.5524 225.98C78.6409 225.762 79.7264 225.528 80.8091 225.277C82.0643 224.987 83.3156 224.677 84.5619 224.343C98.6975 220.555 111.948 214.02 123.559 205.111C135.169 196.202 144.911 185.094 152.228 172.42L248.737 228.14C236.063 220.822 222.072 216.073 207.563 214.163C202.73 213.527 197.87 213.212 193.016 213.212C183.299 213.212 173.602 214.481 164.175 217.006C150.039 220.794 136.788 227.329 125.178 236.238C113.568 245.147 103.826 256.255 96.5088 268.929L-5.93999e-05 213.21Z" fill="#F9C784"/>
<path d="M379.81 288.561C372.493 275.887 362.751 264.778 351.14 255.87C347.273 252.902 343.222 250.199 339.018 247.771L339.018 247.773C335.876 245.959 332.648 244.299 329.346 242.8C329.321 242.789 329.296 242.778 329.271 242.766C328.207 242.284 327.135 241.819 326.056 241.37C325.449 241.118 324.84 240.87 324.228 240.629C323.157 240.206 322.078 239.8 320.994 239.41C320.342 239.176 319.688 238.947 319.032 238.725C317.981 238.369 316.924 238.03 315.861 237.705C314.629 237.329 313.39 236.972 312.144 236.638C298.008 232.85 283.265 231.885 268.756 233.795C254.247 235.705 240.255 240.454 227.582 247.771L171.862 151.262C179.179 163.936 188.922 175.045 200.532 183.953C204.399 186.921 208.451 189.623 212.655 192.05C221.07 196.909 230.102 200.659 239.528 203.185C253.664 206.973 268.407 207.938 282.916 206.028C297.426 204.118 311.417 199.369 324.09 192.052L379.81 288.561Z" fill="#F9C784"/>
<path d="M88.5606 33.3978C88.5606 48.0321 91.4433 62.5234 97.0436 76.0438C98.9093 80.5479 101.066 84.9143 103.493 89.1183L103.494 89.1172C105.308 92.2592 107.273 95.3105 109.384 98.2597C109.399 98.2819 109.416 98.304 109.431 98.3261C110.112 99.2756 110.807 100.215 111.518 101.143C111.917 101.665 112.321 102.184 112.73 102.699C113.446 103.601 114.177 104.491 114.922 105.372C115.369 105.9 115.821 106.425 116.278 106.945C117.01 107.779 117.756 108.602 118.514 109.415C119.393 110.357 120.288 111.285 121.2 112.197C131.548 122.545 143.833 130.753 157.353 136.354C170.874 141.954 185.365 144.837 199.999 144.837L199.999 256.275C199.999 241.641 197.117 227.15 191.516 213.629C189.651 209.125 187.493 204.76 185.066 200.556C180.207 192.14 174.261 184.377 167.36 177.476C157.012 167.128 144.727 158.92 131.207 153.32C117.686 147.719 103.195 144.837 88.5606 144.837L88.5606 33.3978Z" fill="#F9C784"/>
<path d="M213.208 400C220.525 387.326 225.274 373.335 227.184 358.826C227.82 353.992 228.136 349.133 228.136 344.279L228.135 344.279C228.135 340.651 227.958 337.026 227.605 333.416C227.603 333.389 227.6 333.362 227.597 333.335C227.483 332.173 227.35 331.012 227.199 329.853C227.114 329.201 227.024 328.549 226.927 327.899C226.758 326.76 226.57 325.623 226.365 324.488C226.242 323.807 226.113 323.127 225.978 322.448C225.76 321.359 225.526 320.274 225.275 319.191C224.985 317.936 224.675 316.684 224.341 315.438C220.553 301.302 214.018 288.052 205.109 276.441C196.2 264.831 185.092 255.089 172.418 247.772L228.138 151.263C220.82 163.937 216.071 177.928 214.161 192.437C213.525 197.27 213.211 202.13 213.211 206.984C213.21 216.701 214.479 226.398 217.004 235.825C220.792 249.961 227.327 263.212 236.236 274.822C245.145 286.432 256.253 296.174 268.927 303.491L213.208 400Z" fill="#F9C784"/>
<path d="M288.561 20.1921C275.887 27.5093 264.778 37.2515 255.87 48.8617C252.902 52.7294 250.199 56.78 247.771 60.984L247.773 60.9844C245.959 64.1263 244.299 67.354 242.8 70.6563C242.789 70.6811 242.778 70.7061 242.766 70.7309C242.284 71.795 241.819 72.8668 241.37 73.9459C241.118 74.553 240.87 75.1622 240.629 75.7739C240.206 76.8452 239.8 77.9237 239.41 79.0084C239.176 79.6599 238.947 80.3135 238.725 80.9696C238.369 82.0209 238.03 83.0783 237.705 84.141C237.329 85.373 236.972 86.612 236.638 87.8583C232.85 101.994 231.885 116.737 233.795 131.246C235.705 145.755 240.454 159.747 247.771 172.42L151.262 228.14C163.936 220.823 175.045 211.08 183.953 199.47C186.921 195.603 189.623 191.551 192.05 187.347C196.909 178.932 200.659 169.9 203.185 160.473C206.973 146.338 207.938 131.595 206.028 117.086C204.118 102.576 199.369 88.5852 192.052 75.9115L288.561 20.1921Z" fill="#F9C784"/>
</svg>
